<svg width="128" height="128" viewBox="0 0 256 384" xmlns="http://www.w3.org/2000/svg">
  <path d="M128 0H64C28.65 0 0 28.65 0 64C0 99.35 28.65 128 64 128H128V0Z" fill="#F24E1E"/>
  <path d="M128 128H64C28.65 128 0 156.65 0 192C0 227.35 28.65 256 64 256H128V128Z" fill="#A259FF"/>
  <path d="M128 256H64C28.65 256 0 284.65 0 320C0 355.35 28.65 384 64 384C99.35 384 128 355.35 128 320V256Z" fill="#0ACF83"/>
  <path d="M128 0H192C227.35 0 256 28.65 256 64C256 99.35 227.35 128 192 128H128V0Z" fill="#FF7262"/>
  <path d="M128 128H192C227.35 128 256 156.65 256 192C256 227.35 227.35 256 192 256C156.65 256 128 227.35 128 192V128Z" fill="#1ABCFE"/>
</svg>
